# xmcd
#
# Track frame offsets:
#	150
#	20462
#	36927
#	52848
#	87256
#	108390
#	130573
#	152736
#	172495
#	194494
#
# Disc length: 3354 seconds
#
# Revision: 0
# Processed by: cddbd v1.4PL0 Copyright (c) Steve Scherf et al.
# Submitted via: dBpowerAMP V4.0
#
DISCID=800d180a
DTITLE=Waldo - The Mix
DYEAR=1900
DGENRE=Blues
TTITLE0=Mama
TTITLE1=Low Rider
TTITLE2=Late Night
TTITLE3=Stormy Monday
TTITLE4=Together
TTITLE5=It's rainy today
TTITLE6=Who's dat knocking
TTITLE7=Without you nearby
TTITLE8=Give it up Turn it loose
TTITLE9=Get there if you can
EXTD=
EXTT0=
EXTT1=
EXTT2=
EXTT3=
EXTT4=
EXTT5=
EXTT6=
EXTT7=
EXTT8=
EXTT9=
PLAYORDER=
